<?xml version="1.0" standalone="no"?>
<!DOCTYPE svg PUBLIC "-//W3C//DTD SVG 20010904//EN"
 "http://www.w3.org/TR/2001/REC-SVG-20010904/DTD/svg10.dtd">
<svg version="1.0" xmlns="http://www.w3.org/2000/svg"
 width="260.000000pt" height="260.000000pt" viewBox="0 0 260.000000 260.000000"
 preserveAspectRatio="xMidYMid meet">
<metadata>
Created by potrace 1.11, written by Peter Selinger 2001-2013
</metadata>
<g transform="translate(0.000000,260.000000) scale(0.100000,-0.100000)"
fill="#000000" stroke="none">
<path d="M0 2100 l0 -500 1300 0 1300 0 0 500 0 500 -1300 0 -1300 0 0 -500z
m932 283 c9 -10 19 -28 23 -41 6 -21 11 -22 49 -17 74 11 92 -45 24 -78 l-36
-18 15 -47 c9 -26 17 -49 19 -51 2 -2 17 2 34 8 40 13 70 -1 70 -33 0 -27 -15
-42 -51 -51 -25 -6 -25 -8 -16 -44 14 -51 4 -73 -30 -69 -21 2 -33 13 -46 40
l-18 36 -52 -18 c-33 -11 -51 -23 -49 -31 15 -59 14 -77 -7 -88 -29 -16 -58 1
-66 39 -7 30 -7 30 -55 24 -42 -6 -49 -4 -59 15 -16 29 1 58 39 66 35 8 35 7
14 68 -15 43 -18 46 -42 41 -15 -4 -29 -7 -32 -6 -29 0 -39 4 -44 18 -11 29 4
52 40 64 25 9 34 16 30 27 -24 61 -13 93 31 93 18 0 28 -9 40 -37 8 -21 16
-39 17 -40 3 -3 98 27 104 33 2 1 -1 19 -8 39 -10 31 -10 39 6 56 21 24 36 24
56 2z m716 -30 l3 -33 64 0 64 0 3 33 c3 28 7 32 36 35 31 3 32 2 32 -32 0
-35 1 -36 40 -36 31 0 43 -5 56 -24 8 -14 14 -35 12 -48 l-3 -23 -237 -3 -238
-2 0 38 c0 48 14 62 62 62 37 0 38 1 38 36 0 34 1 35 33 32 28 -3 32 -7 35
-35z m307 -331 c0 -141 -2 -155 -19 -168 -16 -11 -63 -14 -219 -14 -117 0
-206 4 -218 10 -18 10 -19 23 -19 171 l0 159 238 -2 237 -3 0 -153z"/>
<path d="M846 2184 c-22 -8 -41 -16 -43 -17 -1 -2 4 -25 13 -51 18 -52 26 -54
98 -27 30 12 30 22 6 86 -11 28 -19 29 -74 9z"/>
<path d="M1544 2106 c-12 -31 0 -51 34 -54 32 -3 33 -2 30 30 -2 28 -7 34 -31
36 -17 2 -29 -2 -33 -12z"/>
<path d="M1687 2114 c-4 -4 -7 -20 -7 -36 0 -25 3 -28 36 -28 34 0 35 1 32 33
-2 26 -8 33 -28 35 -14 2 -29 0 -33 -4z"/>
<path d="M1827 2114 c-4 -4 -7 -20 -7 -36 0 -25 3 -28 36 -28 34 0 35 1 32 33
-2 26 -8 33 -28 35 -14 2 -29 0 -33 -4z"/>
<path d="M1544 1966 c-12 -31 1 -51 34 -54 31 -3 32 -2 32 32 0 33 -2 36 -30
36 -17 0 -33 -6 -36 -14z"/>
<path d="M1684 1966 c-12 -31 0 -51 34 -54 32 -3 33 -2 30 30 -2 28 -7 34 -31
36 -17 2 -29 -2 -33 -12z"/>
<path d="M1820 1945 c0 -35 1 -36 33 -33 28 3 32 6 32 33 0 27 -4 30 -32 33
-32 3 -33 2 -33 -33z"/>
</g>
</svg>
